<?xml version="1.0" standalone="no"?><!DOCTYPE svg PUBLIC "-//W3C//DTD SVG 1.1//EN" "http://www.w3.org/Graphics/SVG/1.1/DTD/svg11.dtd"><svg xmlns="http://www.w3.org/2000/svg" xmlns:xlink="http://www.w3.org/1999/xlink"><symbol viewBox="0 0 960 1200" id="areyouyou" xmlns="http://www.w3.org/2000/svg"><path d="M649.4 232.1c-11.3 1.1-22.5 5.5-29.5 11.8-6.8 6.1-10.7 13.7-14.5 28.6-2.7 10.7-2.8 11.9-2.8 38-.1 27.5.2 30.7 4.5 49 3.8 16.4 11.3 30.5 19.4 36.7 7.2 5.5 13.6 7.1 25.9 6.6 11.4-.6 15.3-2 31-11.8 18.6-11.6 21-14.4 20.4-24.1-.5-6.5-3.9-11.9-9.1-14-4.9-2.1-12.2-1.5-16.5 1.4-9.7 6.4-20.7 13-23.7 14.3-8.4 3.5-11.9-2.7-17.3-29.9-.9-4.6-.8-4.9 1.5-5.8 1.3-.5 5.9-.9 10.1-.9 11.1 0 41.3-5.5 47.3-8.6 9.5-4.8 11.6-18.8 4.1-26-3.4-3.3-8.2-5.4-12.2-5.4-1.7 0-8.2 1.1-14.3 2.5-14.2 3.2-35.3 5.3-36.9 3.7-1.5-1.5.6-17.4 3.1-24.2 2.2-6 5.6-7.6 19.8-9 6.1-.6 12.7-1.7 14.5-2.5 6.1-2.5 10.8-11.8 9.3-18.4-.8-3.9-5.9-10.3-9.3-11.8-3-1.3-12.5-1.4-24.8-.2zM457 237.9c-16.4 5-24.8 19.8-31.7 55.6-2.6 13.8-2.6 14.9-3.3 69-.7 62.2-.8 61 6.7 65.8 7 4.6 13.8 4.4 20.5-.6 5.2-3.8 5.8-7.5 5.8-33 0-12.7.4-23.8.8-24.5.7-.9 6 .5 22.8 6.1 35.9 12.1 48.7 17.7 58.4 25.3 6.5 5 9.7 6.4 15.1 6.4 5.6 0 10.2-2.2 13.4-6.5 2.4-3.1 2.9-4.7 2.9-9.8.1-7.8-2-10.8-12.4-18.2-11.1-7.8-21.3-12.7-46.7-22.6-2.8-1.1-2.9-2.3-.2-6 1.1-1.6 3.4-5.9 5.2-9.6 3.2-6.8 3.2-6.9 3.1-22.3 0-13.9-.3-16.4-2.8-24.5-6.7-22-21.6-42-36.8-49-5.5-2.6-15.2-3.3-20.8-1.6zm13.1 37.8c10 11 16.4 31.4 13.7 43.6-1.2 5.8-6.3 12.1-11.2 13.7-4.6 1.5-14.4 1.6-15.8.2-2.4-2.4 0-28.8 4.2-45.4 4.1-16.4 4.6-17 9.1-12.1zM279.5 241c-16.8 6.5-29.9 34.9-40.5 88-4.1 20.2-9.6 45.1-11.6 52-6.7 23.3-7.8 31.6-5.2 37.7 4.3 10 17.9 13.1 26 5.9 3.4-3 5.4-7 6.3-12.6.4-2.5 2-9.2 3.6-15 1.6-5.8 3.8-14.8 5-20 1.2-5.2 2.7-10.1 3.3-10.8.9-.9 8.6-1.9 22.7-3.2 11.8-1 23.2-2.2 25.5-2.5 5.5-.9 6.9.7 7.8 8.7.9 9.2 5.1 28.4 7.6 35.3 1.3 3.3 3.4 7.3 4.9 8.9 7.3 7.9 20 7.3 25.7-1.3 3.8-5.8 4-10.2 1-19.6-1.4-4.4-3.8-15.3-5.3-24.3-2.2-13.6-2.5-16.8-1.5-19.6 2.3-6.3.7-14-3.7-18-1.2-1.1-2.8-4.5-3.7-7.5-11.1-40-23.9-67.2-36.3-77-9.2-7.3-21-9.2-31.6-5.1zm18.5 44.1c6.3 12.4 15.8 39.6 14.3 41-1.8 1.7-37.1 4.8-38.5 3.4-.7-.8 3.5-18.6 7.3-30.8 3.1-10 7.3-20.2 9.1-22.5 1.6-1.9 3.4.1 7.8 8.9zM369.2 506.1c-4.4 2.2-6.4 4.3-21.3 22.6-4.6 5.6-14 16.2-20.8 23.5-6.8 7.3-14.1 15.7-16.3 18.5-2.1 2.9-4.3 5.3-4.8 5.3-.6 0-2-.9-3.2-1.9-5.8-4.9-14.5-11.6-28.3-22.1-8.3-6.2-19.2-15.3-24.3-20.1-8-7.5-9.9-8.9-13.7-9.4-7.9-1.2-14.6 1.9-18 8.6-2.3 4.4-1.9 13 .7 16.5 5.7 7.7 21.4 21.7 35.8 31.9 3 2.2 12.2 9.2 20.3 15.7 8.2 6.5 16.1 12.5 17.7 13.4l2.7 1.7-.5 37.7c-.4 34.3-.3 38.2 1.3 43.4 3 9.5 9.6 13.5 20.2 12.3 5.2-.6 8.8-2.9 12.1-7.8 2.1-3 2.3-4.2 1.7-9.4-1.1-10.7-1.6-53.6-.7-68 .6-11.6 1.2-14.9 3.2-19 2.5-5.4 8.3-13.2 15.2-20.6 12.4-13.4 23.2-25.6 31.3-35.3 14.3-17.1 13.7-16.1 13.3-23.8-.4-7.5-2.3-10.5-9-13.9-4.8-2.5-9.3-2.4-14.6.2zM686.8 512.9c-3.9 1.3-8 4.7-10 8.4-1.3 2.5-1.7 5.9-1.8 15.4-.1 28.4-8.2 77.2-15.4 92.4-1.5 3.1-4.8 7.9-7.5 10.7-3.8 4.2-5.3 5.2-7.9 5.2-7.8 0-15.7-6.9-21.2-18.6-7.6-16.2-14.3-51.9-15.7-83.8-.5-11.2-1-14.6-2.7-18-3-5.8-7.6-8.6-14.3-8.6-6.8 0-10.1 1.7-13.9 7.1-2.9 4.2-2.9 4.4-2.8 17.8.2 16 4.2 49.8 7.8 65.6 8.4 36.8 22.1 58.6 43 68.3 10.5 4.9 27.7 5 37.4.4 9.2-4.5 21.6-18.1 28.2-31.2 5-9.9 11-34.3 14.5-59 .9-6.3 2-14.2 2.5-17.6.6-3.3 1-14.5 1-24.8 0-18.2-.1-18.7-2.5-22.6-1.4-2.2-3.8-4.6-5.4-5.4-3.8-2-9.9-2.7-13.3-1.7zM439.7 535.4c-16 5.8-36.8 36-42.6 62.1-4.1 18.7-3.8 40.6.9 54.5 5.2 15.3 18.2 30.3 36.8 42.3 9.7 6.3 25.7 9.1 36.9 6.4 17.4-4 39.5-26.1 48.3-48.2 3.5-8.6 5-19.1 5-34.4 0-23-7-39.3-23.9-56.1-11-11-20.5-16.7-35.9-21.9-5.1-1.7-10.6-3.8-12.2-4.6-3.5-1.8-8.3-1.9-13.3-.1zm24.1 40.6c9.5 4.8 19.4 14.7 23.9 23.8 2.6 5.2 2.8 6.8 3.1 18.9.4 15.5-.8 21.2-6.4 29.4-4.4 6.6-13.9 16.5-17.6 18.5-7 3.7-14.9.3-26.4-11.1-11.4-11.3-12.8-15.1-12.1-34 .3-11.6.9-15.3 3-21.7 3-9.1 3.4-9.9 9.9-20.1l5-7.7h4.8c3.6 0 6.8 1 12.8 4zM369.2 784.1c-4.4 2.2-6.4 4.3-21.3 22.6-4.6 5.6-14 16.2-20.8 23.5-6.8 7.3-14.1 15.7-16.3 18.5-2.1 2.9-4.3 5.3-4.8 5.3-.6 0-2-.9-3.2-1.9-5.8-4.9-14.5-11.6-28.3-22.1-8.3-6.2-19.2-15.3-24.3-20.1-8-7.5-9.9-8.9-13.7-9.4-7.9-1.2-14.6 1.9-18 8.6-2.3 4.4-1.9 13 .7 16.5 5.7 7.7 21.4 21.7 35.8 31.9 3 2.2 12.2 9.2 20.3 15.7 8.2 6.5 16.1 12.5 17.7 13.4l2.7 1.7-.5 37.7c-.4 34.3-.3 38.2 1.3 43.4 3 9.5 9.6 13.5 20.2 12.3 5.2-.6 8.8-2.9 12.1-7.8 2.1-3 2.3-4.2 1.7-9.4-1.1-10.7-1.6-53.6-.7-68 .6-11.6 1.2-14.9 3.2-19 2.5-5.4 8.3-13.2 15.2-20.6 12.4-13.4 23.2-25.6 31.3-35.3 14.3-17.1 13.7-16.1 13.3-23.8-.4-7.5-2.3-10.5-9-13.9-4.8-2.5-9.3-2.4-14.6.2zM686.8 790.9c-3.9 1.3-8 4.7-10 8.4-1.3 2.5-1.7 5.9-1.8 15.4-.1 28.4-8.2 77.2-15.4 92.4-1.5 3.1-4.8 7.9-7.5 10.7-3.8 4.2-5.3 5.2-7.9 5.2-7.8 0-15.7-6.9-21.2-18.6-7.6-16.2-14.3-51.9-15.7-83.8-.5-11.2-1-14.6-2.7-18-3-5.8-7.6-8.6-14.3-8.6-6.8 0-10.1 1.7-13.9 7.1-2.9 4.2-2.9 4.4-2.8 17.8.2 16 4.2 49.8 7.8 65.6 8.4 36.8 22.1 58.6 43 68.3 10.5 4.9 27.7 5 37.4.4 9.2-4.5 21.6-18.1 28.2-31.2 5-9.9 11-34.3 14.5-59 .9-6.3 2-14.2 2.5-17.6.6-3.3 1-14.5 1-24.8 0-18.2-.1-18.7-2.5-22.6-1.4-2.2-3.8-4.6-5.4-5.4-3.8-2-9.9-2.7-13.3-1.7zM439.7 813.4c-16 5.8-36.8 36-42.6 62.1-4.1 18.7-3.8 40.6.9 54.5 5.2 15.3 18.2 30.3 36.8 42.3 9.7 6.3 25.7 9.1 36.9 6.4 17.4-4 39.5-26.1 48.3-48.2 3.5-8.6 5-19.1 5-34.4 0-23-7-39.3-23.9-56.1-11-11-20.5-16.7-35.9-21.9-5.1-1.7-10.6-3.8-12.2-4.6-3.5-1.8-8.3-1.9-13.3-.1zm24.1 40.6c9.5 4.8 19.4 14.7 23.9 23.8 2.6 5.2 2.8 6.8 3.1 18.9.4 15.5-.8 21.2-6.4 29.4-4.4 6.6-13.9 16.5-17.6 18.5-7 3.7-14.9.3-26.4-11.1-11.4-11.3-12.8-15.1-12.1-34 .3-11.6.9-15.3 3-21.7 3-9.1 3.4-9.9 9.9-20.1l5-7.7h4.8c3.6 0 6.8 1 12.8 4z"/></symbol><symbol viewBox="0 0 20 20" id="facebook" xmlns="http://www.w3.org/2000/svg"><path d="M2.5 0h15A2.5 2.5 0 0 1 20 2.5v15a2.5 2.5 0 0 1-2.5 2.5h-15A2.5 2.5 0 0 1 0 17.5v-15A2.5 2.5 0 0 1 2.5 0zm10 20H10v-8.75H7.5v-2.5H10V7.5c0-1.6.11-3.751 2.49-3.751h3.76v2.5h-2.5c-1.17 0-1.25.476-1.25 1.25V8.75h3.75L15 11.25h-2.5V20z" fill-rule="evenodd"/></symbol><symbol viewBox="0 0 52 89" id="footer-sep" xmlns="http://www.w3.org/2000/svg"><path d="M0 88.999l40-88h11l-40 88H0z"/></symbol><symbol viewBox="0 0 22.62 28.125" id="next" xmlns="http://www.w3.org/2000/svg"><path d="M-.01 16.489l2.12-2.121L13.75 26.01l-2.12 2.121zm20.54-2l2.1 2.146-10.92 11.368-2.1-2.148zM10.12 0h3v24.5h-3V0z" fill="#fff"/></symbol><symbol viewBox="0 0 40 66" id="pin" xmlns="http://www.w3.org/2000/svg"><path d="M37.864 29H38L20 64 2 29h.136A19.907 19.907 0 0 1 0 20C0 8.954 8.954 0 20 0s20 8.954 20 20c0 3.238-.77 6.295-2.136 9zM20 13a7 7 0 1 0 0 14 7 7 0 0 0 0-14z"/></symbol><symbol viewBox="0 0 20 20" id="pinterest" xmlns="http://www.w3.org/2000/svg"><path d="M10 0a10 10 0 0 0-4.01 19.16 8.67 8.67 0 0 1 .17-2.3c.19-.811 1.29-5.448 1.29-5.448a3.839 3.839 0 0 1-.32-1.582c0-1.482.86-2.589 1.93-2.589a1.332 1.332 0 0 1 1.34 1.5 21.469 21.469 0 0 1-.88 3.549 1.549 1.549 0 0 0 1.58 1.927c1.89 0 3.17-2.433 3.17-5.318 0-2.191-1.48-3.831-4.16-3.831a4.734 4.734 0 0 0-4.92 4.788 2.85 2.85 0 0 0 .66 1.962.485.485 0 0 1 .14.557c-.05.184-.16.627-.2.8a.347.347 0 0 1-.5.251c-1.4-.57-2.05-2.1-2.05-3.821 0-2.841 2.39-6.247 7.14-6.247 3.82 0 6.34 2.763 6.34 5.729 0 3.924-2.19 6.854-5.4 6.854a2.851 2.851 0 0 1-2.44-1.247s-.58 2.3-.71 2.749a8.265 8.265 0 0 1-1 2.142A10 10 0 1 0 10 0z"/></symbol><symbol viewBox="0 0 22.63 28.125" id="prev" xmlns="http://www.w3.org/2000/svg"><path d="M22.63 11.635l-2.12 2.121L8.87 2.115l2.12-2.122zm-20.54 2l-2.1-2.147L10.91.121l2.1 2.148zM9.5 3.628h3v24.497h-3v-24.5z" fill="#fff"/></symbol><symbol id="share" viewBox="0 0 19 21" xml:space="preserve" xmlns="http://www.w3.org/2000/svg"><style>.hst0{fill-rule:evenodd;clip-rule:evenodd}</style><path class="hst0" d="M12.5 7v2.2h-1.3v-6l2.9 2.9 1.3-1.3-5-5-5 5 1.3 1.3 2.9-2.9v6H8.1V7H1.4v13.3h17.8V7h-6.7zm4.4 11.1H3.6V9.2h5.8v4h1.8v-4H17v8.9z" id="hShare"/></symbol><symbol viewBox="0 0 11.5 20" id="tumblr" xmlns="http://www.w3.org/2000/svg"><path d="M11.47 18.836a5.484 5.484 0 0 1-3.42 1.163H7.9a5.194 5.194 0 0 1-5.59-5.342v-6.1a.09.09 0 0 0-.09-.091H.09A.09.09 0 0 1 0 8.375V5.6a.085.085 0 0 1 .06-.084A5.991 5.991 0 0 0 3.94.153a.165.165 0 0 1 .15-.156h2.85a.091.091 0 0 1 .09.092v4.882a.09.09 0 0 0 .09.09h3.54a.09.09 0 0 1 .09.091v3.225a.09.09 0 0 1-.09.091H7.1a.09.09 0 0 0-.09.091v5.794a1.726 1.726 0 0 0 1.88 1.967 4.576 4.576 0 0 0 1.58-.313.093.093 0 0 1 .12.055l.9 2.677a.071.071 0 0 1-.02.097z"/></symbol><symbol viewBox="0 0 21 17" id="twitter" xmlns="http://www.w3.org/2000/svg"><path d="M21 2.013a8.6 8.6 0 0 1-2.48.676 4.309 4.309 0 0 0 1.9-2.375 8.62 8.62 0 0 1-2.74 1.041 4.312 4.312 0 0 0-7.45 2.936 4.505 4.505 0 0 0 .11.979A12.255 12.255 0 0 1 1.46.786 4.289 4.289 0 0 0 2.8 6.515a4.324 4.324 0 0 1-1.96-.536v.054A4.3 4.3 0 0 0 4.3 10.24a4.322 4.322 0 0 1-1.95.073 4.315 4.315 0 0 0 4.03 2.982 8.678 8.678 0 0 1-5.35 1.836A8.987 8.987 0 0 1 0 15.072 12.26 12.26 0 0 0 18.86 4.79c0-.186 0-.372-.01-.556A8.815 8.815 0 0 0 21 2.013z"/></symbol><symbol viewBox="0 0 960 1200" id="whoareyou" xmlns="http://www.w3.org/2000/svg"><path d="M207.7 232.5c-8 5.5-8.8 12.5-3.4 31.5 8.7 30.4 22.5 84.1 28.7 111.5 7.5 32.6 12.9 43.6 23.7 48.2 1.8.7 4.5 1.3 6.1 1.3 4 0 12.4-4.5 15-7.9 3.5-4.7 9.6-21.1 13.3-35.6 4.1-16.3 10.2-34.5 11.6-34.5.7 0 2.5 2.4 3.9 5.2 6.3 12.5 22 36.1 30.3 45.7 11.4 13.1 24.7 14.7 35.4 4.3 10.8-10.5 11.5-15.3 12.6-88.2.6-45.6.9-51.9 2.4-54.7 3.9-7.3.8-17.2-6.5-21.3-8.7-4.9-19.4-.8-24.6 9.3-3.3 6.3-4.1 17.7-4.2 57.3 0 34.2-.8 54.4-2 54.4-1.5 0-13.8-20.8-19.9-33.5-7.3-15.2-9.8-18.7-15.9-22.6-6.3-4-14.7-4.1-21.8-.3-5.5 2.9-8 5.5-12.7 13.4-3.9 6.5-12.2 26.9-13.9 34-1.3 5.5-3.4 6.6-4.4 2.2-1-4.5-7.3-29.9-10.4-41.7-11.4-43.3-18.1-67.9-19.7-71.7-3.6-8.5-15.6-11.7-23.6-6.3zM646 237.5c-10.1 5.3-16.2 12.6-24.4 29.1-8.7 17.6-13.3 38.3-14.3 64.5-.7 19.7.4 28.8 5.3 43.7 10.4 31.8 26.8 45.1 55.5 45.2 16.7 0 34.3-7.2 45.6-18.7 6.9-6.9 11.2-14.5 13.9-24.4 2.6-9.4 2.7-46.6.1-59.4-5.2-25.9-11.5-38.6-25.9-52.1-7.9-7.4-13.8-10.4-20.1-10.4H677v-3.9c0-6.9-2.4-10.7-9.4-14.8-1.2-.7-5.5-1.2-9.6-1.2-5.9 0-8.4.5-12 2.4zm21 33.4c0 5.8 1.4 8.6 6.7 13.4 13 11.7 15.9 16.3 20 31.8 2.6 9.7 2.7 11.7 2.8 31.4v21l-2.8 4.8c-5.5 9.4-15.8 14.3-28.4 13.5-8.8-.6-11.4-2.2-15.9-9.6-5.3-8.8-8.5-20.3-9.1-32.7-1.1-23.4 3-47.1 11.3-64.1 4.9-10.1 8-13.4 12.5-13.4 2.7 0 2.9.3 2.9 3.9zM520.2 247.6c-1.8 1-4.5 3.3-6 5.2-2.7 3.5-2.7 3.8-2.5 17.6.1 7.8.8 23.1 1.6 34.1.9 11 1.2 20.4.7 20.8-.4.5-2.3.5-4.1 0-1.9-.5-12.2-.6-22.9-.3s-19.9.3-20.3-.1c-.4-.3-1-14.7-1.2-31.9l-.4-31.3-2.5-3.8c-8.3-12.5-25.5-8.4-29.6 7.1-.9 3.3-1 12.5-.5 35.7l.7 31.2-2.8 3.7c-4 5.2-4.1 13.2-.3 19 2.6 3.9 2.7 4.3 3.2 25.9.5 24.4 1.6 30.7 6.3 35.6 6.1 6.4 16.6 6.4 22.6.1 4.9-5.1 6.1-9.4 4.8-17.3-1.5-9.4-1.3-38.6.2-39.5.7-.5 10.1-1.1 20.8-1.5 16.1-.5 20.2-.9 23.3-2.5 5-2.4 5.7-1.4 5.7 9.1 0 12.1 1.8 33.6 3.5 41.5 2.7 13 9.9 20.6 21.2 22.5 5 .8 12.6-2.1 16.1-6.3 4.5-5.3 5.4-8.2 5-14.5-.4-5.4-.8-6.3-4.4-9.7-2.2-2-4.6-3.9-5.4-4.2-1-.3-1.6-4-2.2-14.9-1.2-23-2.8-48.6-4.3-73.4-.8-12.7-1.7-28-2.1-34-.7-13.3-2.4-18.6-7.1-22.2-4.4-3.4-12.3-4.2-17.1-1.7zM647.4 500.1c-11.3 1.1-22.5 5.5-29.5 11.8-6.8 6.1-10.7 13.7-14.5 28.6-2.7 10.7-2.8 11.9-2.8 38-.1 27.5.2 30.7 4.5 49 3.8 16.4 11.3 30.5 19.4 36.7 7.2 5.5 13.6 7.1 25.9 6.6 11.4-.6 15.3-2 31-11.8 18.6-11.6 21-14.4 20.4-24.1-.5-6.5-3.9-11.9-9.1-14-4.9-2.1-12.2-1.5-16.5 1.4-9.7 6.4-20.7 13-23.7 14.3-8.4 3.5-11.9-2.7-17.3-29.9-.9-4.6-.8-4.9 1.5-5.8 1.3-.5 5.9-.9 10.1-.9 11.1 0 41.3-5.5 47.3-8.6 9.5-4.8 11.6-18.8 4.1-26-3.4-3.3-8.2-5.4-12.2-5.4-1.7 0-8.2 1.1-14.3 2.5-14.2 3.2-35.3 5.3-36.9 3.7-1.5-1.5.6-17.4 3.1-24.2 2.2-6 5.6-7.6 19.8-9 6.1-.6 12.7-1.7 14.5-2.5 6.1-2.5 10.8-11.8 9.3-18.4-.8-3.9-5.9-10.3-9.3-11.8-3-1.3-12.5-1.4-24.8-.2zM455 505.9c-16.4 5-24.8 19.8-31.7 55.6-2.6 13.8-2.6 14.9-3.3 69-.7 62.2-.8 61 6.7 65.8 7 4.6 13.8 4.4 20.5-.6 5.2-3.8 5.8-7.5 5.8-33 0-12.7.4-23.8.8-24.5.7-.9 6 .5 22.8 6.1 35.9 12.1 48.7 17.7 58.4 25.3 6.5 5 9.7 6.4 15.1 6.4 5.6 0 10.2-2.2 13.4-6.5 2.4-3.1 2.9-4.7 2.9-9.8.1-7.8-2-10.8-12.4-18.2-11.1-7.8-21.3-12.7-46.7-22.6-2.8-1.1-2.9-2.3-.2-6 1.1-1.6 3.4-5.9 5.2-9.6 3.2-6.8 3.2-6.9 3.1-22.3 0-13.9-.3-16.4-2.8-24.5-6.7-22-21.6-42-36.8-49-5.5-2.6-15.2-3.3-20.8-1.6zm13.1 37.8c10 11 16.4 31.4 13.7 43.6-1.2 5.8-6.3 12.1-11.2 13.7-4.6 1.5-14.4 1.6-15.8.2-2.4-2.4 0-28.8 4.2-45.4 4.1-16.4 4.6-17 9.1-12.1zM277.5 509c-16.8 6.5-29.9 34.9-40.5 88-4.1 20.2-9.6 45.1-11.6 52-6.7 23.3-7.8 31.6-5.2 37.7 4.3 10 17.9 13.1 26 5.9 3.4-3 5.4-7 6.3-12.6.4-2.5 2-9.2 3.6-15 1.6-5.8 3.8-14.8 5-20 1.2-5.2 2.7-10.1 3.3-10.8.9-.9 8.6-1.9 22.7-3.2 11.8-1 23.2-2.2 25.5-2.5 5.5-.9 6.9.7 7.8 8.7.9 9.2 5.1 28.4 7.6 35.3 1.3 3.3 3.4 7.3 4.9 8.9 7.3 7.9 20 7.3 25.7-1.3 3.8-5.8 4-10.2 1-19.6-1.4-4.4-3.8-15.3-5.3-24.3-2.2-13.6-2.5-16.8-1.5-19.6 2.3-6.3.7-14-3.7-18-1.2-1.1-2.8-4.5-3.7-7.5-11.1-40-23.9-67.2-36.3-77-9.2-7.3-21-9.2-31.6-5.1zm18.5 44.1c6.3 12.4 15.8 39.6 14.3 41-1.8 1.7-37.1 4.8-38.5 3.4-.7-.8 3.5-18.6 7.3-30.8 3.1-10 7.3-20.2 9.1-22.5 1.6-1.9 3.4.1 7.8 8.9zM367.2 774.1c-4.4 2.2-6.4 4.3-21.3 22.6-4.6 5.6-14 16.2-20.8 23.5-6.8 7.3-14.1 15.7-16.3 18.5-2.1 2.9-4.3 5.3-4.8 5.3-.6 0-2-.9-3.2-1.9-5.8-4.9-14.5-11.6-28.3-22.1-8.3-6.2-19.2-15.3-24.3-20.1-8-7.5-9.9-8.9-13.7-9.4-7.9-1.2-14.6 1.9-18 8.6-2.3 4.4-1.9 13 .7 16.5 5.7 7.7 21.4 21.7 35.8 31.9 3 2.2 12.2 9.2 20.3 15.7 8.2 6.5 16.1 12.5 17.7 13.4l2.7 1.7-.5 37.7c-.4 34.3-.3 38.2 1.3 43.4 3 9.5 9.6 13.5 20.2 12.3 5.2-.6 8.8-2.9 12.1-7.8 2.1-3 2.3-4.2 1.7-9.4-1.1-10.7-1.6-53.6-.7-68 .6-11.6 1.2-14.9 3.2-19 2.5-5.4 8.3-13.2 15.2-20.6 12.4-13.4 23.2-25.6 31.3-35.3 14.3-17.1 13.7-16.1 13.3-23.8-.4-7.5-2.3-10.5-9-13.9-4.8-2.5-9.3-2.4-14.6.2zM684.8 780.9c-3.9 1.3-8 4.7-10 8.4-1.3 2.5-1.7 5.9-1.8 15.4-.1 28.4-8.2 77.2-15.4 92.4-1.5 3.1-4.8 7.9-7.5 10.7-3.8 4.2-5.3 5.2-7.9 5.2-7.8 0-15.7-6.9-21.2-18.6-7.6-16.2-14.3-51.9-15.7-83.8-.5-11.2-1-14.6-2.7-18-3-5.8-7.6-8.6-14.3-8.6-6.8 0-10.1 1.7-13.9 7.1-2.9 4.2-2.9 4.4-2.8 17.8.2 16 4.2 49.8 7.8 65.6 8.4 36.8 22.1 58.6 43 68.3 10.5 4.9 27.7 5 37.4.4 9.2-4.5 21.6-18.1 28.2-31.2 5-9.9 11-34.3 14.5-59 .9-6.3 2-14.2 2.5-17.6.6-3.3 1-14.5 1-24.8 0-18.2-.1-18.7-2.5-22.6-1.4-2.2-3.8-4.6-5.4-5.4-3.8-2-9.9-2.7-13.3-1.7zM437.7 803.4c-16 5.8-36.8 36-42.6 62.1-4.1 18.7-3.8 40.6.9 54.5 5.2 15.3 18.2 30.3 36.8 42.3 9.7 6.3 25.7 9.1 36.9 6.4 17.4-4 39.5-26.1 48.3-48.2 3.5-8.6 5-19.1 5-34.4 0-23-7-39.3-23.9-56.1-11-11-20.5-16.7-35.9-21.9-5.1-1.7-10.6-3.8-12.2-4.6-3.5-1.8-8.3-1.9-13.3-.1zm24.1 40.6c9.5 4.8 19.4 14.7 23.9 23.8 2.6 5.2 2.8 6.8 3.1 18.9.4 15.5-.8 21.2-6.4 29.4-4.4 6.6-13.9 16.5-17.6 18.5-7 3.7-14.9.3-26.4-11.1-11.4-11.3-12.8-15.1-12.1-34 .3-11.6.9-15.3 3-21.7 3-9.1 3.4-9.9 9.9-20.1l5-7.7h4.8c3.6 0 6.8 1 12.8 4z"/></symbol><symbol viewBox="0 0 960 1200" id="youareyou" xmlns="http://www.w3.org/2000/svg"><path d="M374.8 236c-2.1 1.1-5.2 3.9-7 6.3-1.7 2.3-7.6 8-13.1 12.7-24.4 21-43.5 43-50.8 58.5-1.2 2.5-2.8 4.5-3.5 4.5-.8 0-11.5-9.8-23.7-21.9-26.2-25.7-26.2-25.7-35.7-34.1-4.1-3.6-9.7-8.6-12.5-11.1-6.7-6.1-8.9-7.2-15.2-7.1-6.3 0-10.3 2.1-14.6 7.5-2.7 3.3-3.1 4.5-3.1 10 0 8.8 1.8 11.2 19.2 26.9 8.1 7.3 24.2 22.6 35.8 34.1 26.8 26.5 33.8 31.7 42.2 31.7 2 0 2 .6 2.4 38.7.5 41.1.7 42.5 5.5 49.1 3.6 4.8 9.1 7.2 16.5 7.2 11.5 0 18.8-6.4 19.6-17 .4-5 0-6.6-2.2-10.4l-2.6-4.5v-31c0-30.8.8-41.8 3.6-51.9 3.2-11 17.2-28.1 38-46.2 18.7-16.3 25.8-24 27.3-29.3 3.5-12.5-4.2-23.7-16.7-24.4-4.3-.2-6.6.2-9.4 1.7zM695.5 247.6c-4.8 1.7-10.1 7.4-11.7 12.6-.9 2.9-.8 5.1 0 8.9 2.2 9.3 1.5 42.2-1.2 60.9-5.9 39.6-12.6 59-20.6 59-3.8 0-8-1.6-10.9-4.3-4.9-4.5-16.2-23.5-19.6-32.9-9-25.1-11.5-38.4-12.4-65.8-.4-11.8-1.2-22.6-1.8-24-5.1-11.7-22-14.2-30.6-4.5-4.1 4.7-4.7 8.1-4.7 26 0 21.9 2.5 40.6 8 60.5 2 7.1 2.8 9.5 6.5 20 5.8 16 19.2 37.6 29.4 47.2 10.2 9.7 19.6 13.6 33.9 14 16.4.6 26.4-3.7 36-15.3 8.3-10.2 13-22 18.1-45.4 6.6-30.2 7.6-39.6 7.6-70.5 0-20.6-.4-29.7-1.3-32.8-1.8-5.9-7.3-11.7-12.9-13.6-5.5-1.9-6.6-1.9-11.8 0zM457.4 254c-14.8 3.5-30.2 27.2-38.2 59-2.5 10.1-2.6 11.6-2.7 37.5 0 19.2.4 28.6 1.3 32.5 7.2 29.5 25.6 52.5 47.4 59.1 10.3 3.2 24.2 2.5 32.2-1.6 3.3-1.7 8.5-5.4 11.7-8.3 11.3-10.4 24-33.9 28.3-52.5 4.4-19 4.7-52 .6-63.6-3.6-10.2-8.7-17.8-18.4-28-10.7-11-18.2-16.9-28.6-22.4-4.1-2.3-9.4-5.7-11.7-7.8-5.6-4.8-12.9-6.1-21.9-3.9zm15.3 43.9c9.9 4.6 25.1 18.9 29.2 27.6 1.8 3.8 2.1 6.4 2.1 16.7-.1 22.5-2.5 33.4-11.3 50.2-5.2 10-9.6 14.6-14 14.6-8 0-18.2-11.8-23.3-27-1.6-4.7-1.9-8.7-1.9-29 0-25.5.9-31.4 7.2-46.5 4-9.5 4.7-9.9 12-6.6zM675.2 515.6c-24.6 3-36.3 9.7-44.3 25.6-12.9 25.5-13 88-.2 121.6 4.4 11.7 7.3 16.9 12.7 22.9 5.6 6.2 11.3 9 21 10.4 15.5 2.1 26.2-1.3 47.6-15.3 13.1-8.6 14.4-9.8 16.5-15.8 4-11.2-4.8-23-17-22.9-4.6 0-6.6.9-21 10.1-17.5 11.1-20.8 11.4-25 2.3-2.8-5.8-8.1-28.6-7.2-30.9.4-.9 4-1.5 12.4-1.9 12.7-.7 17.3-1.4 35.8-5.4 13.7-2.9 18.5-5.4 21.5-11.3 5.5-10.7-1.4-23.8-13.5-25.5-2.4-.3-7.5.2-13 1.5-20.6 4.6-43.2 6.9-44.2 4.4-.6-1.7 2-17.9 4.2-25 1.9-6.6 4.8-7.9 21.9-9.9 16.9-1.9 21.5-4.7 23.6-14.1 2-8.5-2.2-16.8-10.4-20.5-4.7-2.1-6.2-2.2-21.4-.3zM468 522.5c-7.6 2.2-12.3 5.5-17.5 12.6-7.3 9.9-11.3 22.4-16.7 51.8-1.9 10.7-2.1 16-2.5 68.4-.3 31.3-.2 58 .1 59.3 1.1 4.4 6.4 9.2 12 11 4.9 1.6 5.6 1.6 10.4 0 5.9-2 10.6-6.7 12.1-12.3.6-2.2 1.1-14.2 1.1-28.1 0-17.9.3-24.2 1.2-24.2 2 0 34.8 10.9 48.8 16.2 17.2 6.6 29.2 12.5 35.6 17.5 7.1 5.7 10.6 7.3 15.9 7.3 14 0 22.7-15.6 15.1-27.2-2.4-3.7-14.5-12.7-23.6-17.6-7.7-4.1-23.9-11.1-32-13.9-7.4-2.5-7.8-3.4-4.1-9.1 1.7-2.7 4.3-7.8 5.8-11.3 2.6-6 2.8-7.3 2.7-20.9 0-17.1-1.3-23.2-8.2-39.5-6.6-15.5-21.8-33.2-33-38.2-6.8-3.2-15.7-3.8-23.2-1.8zm16.3 42.5c8.6 11.4 12.7 23.3 12.7 36.7 0 7-.3 8.4-2.9 12.5-1.7 2.7-4.8 5.7-7.4 7.3-4 2.3-5.4 2.6-11.9 2.3l-7.3-.3.1-11.5c.1-18.4 7.2-53 10.8-53 .8 0 3.5 2.7 5.9 6zM284.5 523.9c-5.1 1.3-12.3 6.1-16.6 10.9-4.6 5.4-13.2 22.6-17.7 35.4-3.5 9.9-8 27.6-11.7 45.8-7 34.4-10 47.6-16.9 72.5-5.6 19.9-2 30.9 11.2 34.4 8.5 2.3 19.4-4.3 20.7-12.6 1.1-6.8 12.8-53 13.7-53.9.2-.2 8.9-1 19.4-1.9 10.4-.8 22.7-1.9 27.3-2.4 4.7-.5 9-.7 9.7-.4.6.2 1.7 4.1 2.4 8.6 3.8 26.3 9 43.7 14.6 48.7 9 7.8 22.2 5.2 27.4-5.5 2.4-5 2.5-9.8.4-15.6-2.5-7.1-4.1-13.7-5.9-24.9-.9-5.8-2-12.6-2.5-15.1-.7-3.3-.5-5.9.6-9.5 2.1-7.1 1-12.6-3.6-17.9-2.7-3.1-4.2-6.1-5.4-11.1-4.8-19.5-16.3-49.7-23.8-62.1-4.8-8-13.8-17.4-19.8-20.7-4.1-2.2-6.7-2.9-12.8-3.2-4.2-.2-9.1 0-10.7.5zm12.5 41.7c3.1 4.9 6.6 12.3 9.6 20.2 3.3 8.4 9.4 27.3 9.4 28.9 0 1.4-3.5 1.9-34.6 4.7-6 .5-7.6-.5-6.4-4.3.4-1.4 1.5-6.2 2.5-10.6 3.8-17.3 13.3-42.5 16-42.5.7 0 2.3 1.6 3.5 3.6zM375.2 792.6c-4.3 2.1-7.5 5.3-17.1 16.8-6.4 7.7-17.3 19.8-24 26.8-6.8 7.1-15.2 16.3-18.8 20.5-3.5 4.3-6.8 7.9-7.3 8.1-.5.2-3.8-2-7.3-5-3.5-2.9-11-8.9-16.7-13.3-20.1-15.6-27.6-21.8-35.5-29.6-8.7-8.5-13.7-10.8-20.7-9.5-4.5.8-10.2 5.2-12.2 9.4-2.2 4.4-2 11.5.3 16.1 2.7 5.3 19.4 20.8 36.9 34.4 8.1 6.2 19.1 15 24.6 19.5 5.4 4.5 11.8 9.4 14.2 11 2.4 1.5 4.5 3.1 4.7 3.7.2.5 0 19.1-.5 41.2-1 43.2-.8 45.8 3.8 51.3 3.9 4.6 8 6.3 15 6.4 12.2 0 20.1-10 17.4-21.9-1.2-5.2-1.2-48.9 0-67.5.9-13.7 1.1-14.8 4.5-21.8 2.8-5.6 6.6-10.4 16.3-20.8 25.1-26.7 42.1-46 46-52.2 1.8-3 2.2-4.8 1.9-9.4-.4-6.9-3.6-11.6-10-14.7-5.7-2.8-9.2-2.6-15.5.5zM707 805.9c-1.9 1-4.8 3.9-6.4 6.4-2.8 4.6-2.9 5-3.3 21.4-.5 20-3.9 44.8-9.8 70.8-3.7 16.4-8.5 26.5-16.5 34.5-3.4 3.4-4.6 4-8.1 4-2.2 0-5.4-.8-7-1.7-4.2-2.5-11.5-12.1-14.8-19.5-7.6-16.8-13.5-51-14.7-86.3-.7-19.2-2-23-9.1-27.2-8-4.7-17.3-3-22.8 4.3-4 5.3-4.8 14.4-3 36.8 3.7 46.5 10 75.3 20.5 94.2 5.7 10.2 17.2 23.6 23.1 26.9 9.3 5.2 15.3 7.1 25.4 8 14.6 1.2 23.2-2.2 35.1-14 17.7-17.5 24.8-35.4 32.4-82 1.1-7.2 2.5-15.7 3.1-19 1.3-7.5 2.4-42 1.5-46.8-.7-4-6.1-10.2-10.2-11.7-4.1-1.6-11.6-1.2-15.4.9zM448.4 824.8c-6.7 2.3-11.9 6.6-19.7 16-8.2 10-11.9 15.6-17.4 26.9-6.3 13-9.1 24.1-10.5 41.2-2 24.6 1.2 39.8 11.6 55.4 5.1 7.6 20.7 22.3 29.1 27.4 10.8 6.4 16 7.8 30 7.8 11.5 0 12.3-.2 18.4-3.2 17.2-8.7 35.1-28.6 42.8-47.7 4.3-10.7 5.6-21.5 5.1-40.4-.5-14.5-.7-16.3-3.6-23.9-5.7-15.4-19.9-33.4-33.9-42.9-7-4.7-19.2-10.8-25-12.3-2.3-.6-6.6-2.3-9.5-3.6-6.2-2.9-10.4-3.1-17.4-.7zm16.1 38.7c18.5 4.8 36.5 24.4 38 41.5 1 10.9-.9 26.8-3.9 32.8-4.9 9.8-16.5 22.4-23.4 25.8-6.7 3.2-15.3-.7-26.7-12.1-3.9-3.8-8.2-9.3-9.5-12-2.4-4.7-2.5-5.9-2.5-21.5.1-18.5 1-23.2 7.2-35.5 5-9.9 12.4-20.5 14.3-20.5.3 0 3.3.7 6.5 1.5z"/></symbol></svg>