<svg version="1.1" xmlns="http://www.w3.org/2000/svg" xmlns:xlink="http://www.w3.org/1999/xlink" x="0px" y="0px" viewBox="0 0 484.6 228.6" style="fill: black;" xml:space="preserve">
	<path d="M65.7,71.2v13c0,20.5-14.2,31.1-32.3,31.1H32c-18.1,0-32-10.5-32-29.7V74.8h31.1v13.4c0,2,0.5,2.9,1.4,2.9h0.3c0.9,0,1.4-0.9,1.4-2.9V76.5c0-3.6-0.9-4.5-4.5-5.6l-10.5-3.1c-13.6-4.2-19-14.4-19-27.2V29.2C0.2,10.5,13.7,0,32,0h1.4C51.4,0,65,10.5,65,29.2V38H34.1V27c0-2-0.5-2.9-1.4-2.9h-0.3c-0.9,0-1.4,0.9-1.4,2.9v8.2c0,3.7,0.9,4.6,4.6,5.7L46.2,44C60.6,48.2,65.7,59.5,65.7,71.2z"></path>
	<path d="M99,66.9v47H67.9V1.4H99v40.5h3.1V1.4h31.1v112.5h-31.1v-47H99z"></path>
	<path d="M147.8,1.4h43.9l13.7,112.5h-32.4l-0.6-10.8h-6.5l-0.5,10.8h-30.6L147.8,1.4z M166.9,78.2h3.9l-2.2-39.5L166.9,78.2z"></path>
	<path d="M236.1,113.9h-29V1.4h31.4l6.8,43.1V1.4h29v112.5h-30.7l-7.4-44.6V113.9z"></path>
	<path d="M320.2,113.9h-31.1V26.4h-12.7v-25h56.4v25h-12.7V113.9z"></path>
	<path d="M335.2,1.4h51.4v23.8h-20.4v17.3h18.9v23.8h-18.9v23.8h20.4v23.8h-51.4V1.4z"></path>
	<path d="M420,1.4v87.4h15.6v25H389V1.4H420z"></path>
	<path d="M468.9,1.4v87.4h15.6v25h-46.7V1.4H468.9z"></path>
	<path d="M27.2,228.6H0V116.1h40.3l2.8,38.9l3.1-38.9h39.9v112.5H58.7v-53.5l-4.6,53.5H31.7l-4.5-53.5V228.6z"></path>
	<path d="M100.7,116.1h43.9l13.8,112.5h-32.4l-0.6-10.8h-6.5l-0.5,10.8H87.7L100.7,116.1z M119.8,192.9h3.9l-2.2-39.6L119.8,192.9z"></path>
	<path d="M160,228.6V116.1h38c18.1,0,27.3,10.2,27.3,26.3v6.6c0,11.6-2.6,18.5-11.4,21.5c8.7,2.5,11.3,9.1,11.3,20.1v38h-31.1v-41.2c0-1.9-0.5-2.8-1.4-2.8H191v44H160z M194.1,158.9v-17.5c0-2-0.5-2.9-1.5-2.9H191v23.8h1.7C193.6,162.3,194.1,161.2,194.1,158.9z"></path>
	<path d="M271.2,228.6h-31.1v-87.4h-12.7v-25h56.4v25h-12.7V228.6z"></path>
	<path d="M317.2,116.1v112.5h-31.1V116.1H317.2z"></path>
	<path d="M348.5,228.6h-29V116.1h31.4l6.8,43.1v-43.1h29v112.5h-30.7l-7.4-44.6V228.6z"></path>
</svg>