<svg version="1.1" id="Layer_1" xmlns="http://www.w3.org/2000/svg" xmlns:xlink="http://www.w3.org/1999/xlink" x="0px" y="0px" viewBox="0 0 800 1714" style="enable-background:new 0 0 800 1714;" xml:space="preserve">
<path d="M345.2,290.8c14.5,1.5,30,4.9,41.7,9.6
	c5,16.1,19.6,13.7,36.5,17.4c5.1,1.1,12.5,3.6,17.4,4.8l7.9,0.3l7.9,4.8c6.2,1.9,8.9-1.7,15.7,0c12.7,3.1,26.5,6.6,40.3,9.2
	L492,602.2c-1.6,22.1-3.2,44.1-4.8,66.2c-1.5,19.2-3,38.5-4.4,57.7c-3.2,41.2-6.4,82.4-9.6,123.6l-4.4,10.9
	c-0.8,9.3-1.6,18.7-2.4,28l-14,3.4c0,10.2,1.1,20.4,3.1,30.4c1.1,5.6-2.2,9.2-2,13c0.8,5.7,1.6,11.4,2.4,17.1
	c-0.5,16.2-0.9,32.3-1.4,48.5c0.3,14.7,2.1,29.1-0.3,44.4c-0.9,5.5,0.9,12,1,16.1c0.6,13.3,0.1,36.2-2.4,49.8
	c-2.8,14.6-5.7,29.1-8.5,43.7c-2.9,16.2,6.2,34,1.7,49.2c-4.1,13.7-14.9,22.5-23.9,31.4c-2.9,2.8-6.7,5.4-8.5,9.2
	c-8.3,17-10.7,36.4-16.7,56.7c-5.8,17.8-11.6,35.5-17.4,53.3c-10.6,23.5-21.2,47.1-31.8,70.7c-3.8,11-7.5,22.1-11.3,33.1
	c-3.7,10.6-9.6,21.4-11.3,33.4c-0.3,1.9,0.8,1.9,1,2.7c-0.2,1.6-0.5,3.2-0.7,4.8c0.3,4.1,0.7,8.2,1,12.3c3-2.4,8.2-10.4,14-8.2
	c8.9,3.4,3.8,9.5,2,16c3.7,0.5,5,2.7,6.5,5.5c6.6,12.7-4.4,27.1-14.3,30.7c0,4.2-2.8,12.8-2.4,14.3c1.4,4.6,8.8,21.6,11.6,24.6
	l5.1,2.7v5.1l2,0.7c0.2,1,0.5,2,0.7,3.1l4.8,4.4c1.4,2.6,2.7,5.2,4.1,7.8c1.6,1,3.2,2.1,4.8,3.1c4.5,5.8,8.9,18.3,14.7,22.2
	c1.7-0.4,18.7,12.7,20.5,15c7.4,9.6,10.2,29-2.7,35.2c-11.2,3.3-39.5-13.1-47.1-17.1c-14.4-7.5-28.1-16.3-41-26.3
	c-9.8-7.7-19.2-18-27-27.7c-14.1-12.9-28.2-25.7-42.3-38.6c-10.9-8.8-20.5-19.2-30-29.4c-2.6-2.8-9.7-6.9-8.2-13.3
	c1.8-7.5,9.8-12.9,15.7-16.7c1.8-2.6,3.6-5.2,5.5-7.8c4.1-5.2,10.5-11.3,16.4-14.7c3.6-2.1,7,0.9,9.6-0.7l4.8-8.9
	c1.6-1.4,3.2-2.7,4.8-4.1c5.3-10.8,9.8-19.2,14-30.7c1-2.7,3.2-3.7,4.1-7.2c6.3-25.1,7.6-51,12-77.5c-0.1-8-0.2-15.9-0.3-23.9
	c0-19.1,0.5-36.4,4.4-51.9c5.8-23,15.1-45,27.7-65.2c6.6-10.7,13.2-21.4,19.8-32.1c-1.5-10.1-3-20.2-4.4-30.4
	c-3.9-22.7-4.1-45.4-8.5-66.6c-1.1-6.4-2.3-12.8-3.4-19.1c-1.6,20.4-12.3,30.9-22.9,42.3c-0.2-0.2-0.5-0.5-0.7-0.7
	c-28.1-22.7-56.2-45.3-84.3-67.9c1.6,0,2,0.1,2.7-0.7c2.2-5.2-0.9-14.5-2-18.4c-4.3-13.7-8.6-27.3-13-41
	c-15.4-0.9-33-11.1-38.9-21.8c-8-14.4,7.1-34.7,3.1-52.6c-3.4-15.1-3.8-31.7-7.2-47.1c-7.3-33.7-11.8-71.3-6.5-110.3l-3.4-1
	c5.3-33.9,10.7-67.8,16-101.7l13-16.4c8.2-10.9,17.1-23.3,27.7-31.7l19.5-17.8c-3.2-10.7-11.8-15.7-18.1-23.2l-23.2-27.7l29-183.3
	l62.5-31.4c7.8-5.1,13.8-12.7,22.2-17.8l18.4-9.2l15.4-11.3C336.6,291.6,342.7,293,345.2,290.8z M293.6,451.3
	c-8.7,15.6-27.4,21-46.1,26.6c-3,0.9-18.4,1.4-19.1,2c-2.1,5.2-3,8.1-5.8,11.9c0.5,6.7,5.5,14.4,2.7,22.2
	c8.4,10.8,16.8,21.6,25.3,32.4l1-0.7l13.7-27.3c6.7-15.1,12.6-29.2,20.1-42.7C286.8,473.4,295.6,454.4,293.6,451.3z M339.4,1507.5
	c-6.9,5.3-14.5,9.6-14.7,21.5h0.3l3.1-1c3.2-7.2,10.7-12.2,12.6-20.5H339.4z M340.4,1521.8c-2.3,3.4-4.9,6.6-7.9,9.6
	c3.8,5.5-0.6,15.5,1.7,21.8C342.7,1549.3,360.1,1523,340.4,1521.8L340.4,1521.8z M327.1,1542.6c-0.7,1.8-1.5,2.6-1.7,5.1
	c0.7,1,1.4,2.1,2,3.1C327.6,1548.2,328.4,1544.1,327.1,1542.6z M329.1,1556.6c-0.1,1.3-0.2,2.5-0.3,3.8c0.2-0.1,0.5-0.2,0.7-0.3
	l0.7-2C329.7,1556.7,330.2,1557.3,329.1,1556.6L329.1,1556.6z"></path>
</svg>